<svg width="851" height="172" viewBox="0 0 851 172" fill="none" xmlns="http://www.w3.org/2000/svg">
<path d="M44.941 0L21.4742 135H0.732025L24.1988 0H44.941ZM96.0934 39.9023L48.3687 85.4297L21.3863 109.424L18.9254 90.0879L38.6129 69.5215L69.5504 39.9023H96.0934ZM58.9156 135L36.2398 89.4727L51.0055 75.4102L81.6793 135H58.9156ZM119.483 39.9023L102.959 135H82.3051L98.8285 39.9023H119.483ZM101.729 15.293C101.67 11.8945 102.784 9.11133 105.069 6.94336C107.354 4.77539 110.166 3.66211 113.506 3.60352C116.729 3.54492 119.483 4.54102 121.768 6.5918C124.112 8.58398 125.284 11.25 125.284 14.5898C125.342 17.9883 124.2 20.7422 121.856 22.8516C119.571 24.9609 116.787 26.0449 113.506 26.1035C110.284 26.1621 107.53 25.2246 105.245 23.291C102.959 21.2988 101.787 18.6328 101.729 15.293ZM174.425 114.082L194.2 0H215.03L191.564 135H172.931L174.425 114.082ZM118.878 89.209L119.054 87.3633C119.816 81.5039 121.193 75.6445 123.185 69.7852C125.236 63.9258 127.989 58.5645 131.446 53.7012C134.962 48.8379 139.239 44.9707 144.279 42.0996C149.376 39.2285 155.353 37.8809 162.208 38.0566C168.185 38.2324 173.165 39.7852 177.15 42.7148C181.134 45.6445 184.239 49.4238 186.466 54.0527C188.751 58.6816 190.304 63.6914 191.124 69.082C191.945 74.4141 192.208 79.6289 191.915 84.7266L191.212 90.7031C190.275 96.0938 188.693 101.543 186.466 107.051C184.239 112.559 181.339 117.598 177.765 122.168C174.249 126.738 170.03 130.371 165.109 133.066C160.245 135.762 154.679 137.021 148.409 136.846C142.14 136.611 136.954 135.029 132.853 132.1C128.751 129.111 125.587 125.273 123.361 120.586C121.134 115.84 119.698 110.742 119.054 105.293C118.409 99.7852 118.351 94.4238 118.878 89.209ZM139.972 87.1875L139.796 89.0332C139.445 92.0801 139.298 95.332 139.357 98.7891C139.415 102.246 139.884 105.557 140.763 108.721C141.7 111.826 143.253 114.404 145.421 116.455C147.648 118.506 150.753 119.619 154.737 119.795C159.366 119.971 163.468 118.916 167.042 116.631C170.675 114.346 173.693 111.357 176.095 107.666C178.497 103.975 180.196 100.049 181.193 95.8887L183.654 79.8047C183.829 76.875 183.624 73.9746 183.038 71.1035C182.511 68.2324 181.544 65.625 180.138 63.2812C178.732 60.9375 176.857 59.0332 174.513 57.5684C172.228 56.0449 169.445 55.2539 166.163 55.1953C161.827 55.0195 158.077 55.8984 154.913 57.832C151.808 59.7656 149.23 62.3438 147.179 65.5664C145.187 68.7891 143.605 72.3047 142.433 76.1133C141.261 79.9219 140.441 83.6133 139.972 87.1875ZM206.516 89.0332L206.779 87.0117C207.482 80.4492 209.094 74.209 211.613 68.291C214.133 62.373 217.473 57.1289 221.633 52.5586C225.852 47.9297 230.803 44.3262 236.486 41.748C242.229 39.1699 248.615 37.9688 255.646 38.1445C262.443 38.2617 268.273 39.668 273.137 42.3633C278.059 45.0586 282.043 48.6621 285.09 53.1738C288.195 57.627 290.363 62.7246 291.594 68.4668C292.824 74.1504 293.146 80.0977 292.561 86.3086L292.385 88.3301C291.623 94.8926 289.953 101.104 287.375 106.963C284.855 112.822 281.486 118.037 277.268 122.607C273.107 127.119 268.156 130.664 262.414 133.242C256.73 135.762 250.402 136.934 243.43 136.758C236.691 136.641 230.861 135.264 225.939 132.627C221.076 129.932 217.092 126.357 213.986 121.904C210.939 117.451 208.801 112.412 207.57 106.787C206.34 101.104 205.988 95.1855 206.516 89.0332ZM227.346 87.0117L227.17 89.0332C226.877 92.2559 226.848 95.6543 227.082 99.2285C227.316 102.803 228.02 106.143 229.191 109.248C230.363 112.354 232.18 114.902 234.641 116.895C237.102 118.887 240.383 119.941 244.484 120.059C248.82 120.176 252.6 119.297 255.822 117.422C259.045 115.547 261.74 113.027 263.908 109.863C266.076 106.699 267.805 103.242 269.094 99.4922C270.383 95.6836 271.232 91.9629 271.643 88.3301L271.818 86.3086C272.17 83.1445 272.229 79.7754 271.994 76.2012C271.76 72.5684 271.057 69.1699 269.885 66.0059C268.713 62.7832 266.896 60.1758 264.436 58.1836C261.975 56.1328 258.693 55.0488 254.592 54.9316C250.197 54.8145 246.389 55.7227 243.166 57.6562C239.943 59.5312 237.248 62.0801 235.08 65.3027C232.912 68.5254 231.184 72.041 229.895 75.8496C228.664 79.6582 227.814 83.3789 227.346 87.0117ZM319.378 112.939L353.04 39.9023H366.927L359.016 63.0176L325.442 135H313.05L319.378 112.939ZM319.466 39.9023L323.245 115.488L321.136 135H308.216L299.778 39.9023H319.466ZM373.958 112.324L402.346 39.9023H423.089L381.692 135H367.981L373.958 112.324ZM368.596 39.9023L377.034 114.258L375.891 135H364.553L355.325 60.9082L355.589 39.9023H368.596ZM476.723 59.4141L457.211 171.562H436.469L459.321 39.9023H478.393L476.723 59.4141ZM531.918 86.0449L531.743 87.8906C531.039 93.6328 529.663 99.4336 527.612 105.293C525.62 111.094 522.895 116.426 519.438 121.289C516.039 126.094 511.85 129.932 506.87 132.803C501.889 135.674 496.03 137.021 489.291 136.846C483.373 136.729 478.393 135.322 474.35 132.627C470.307 129.873 467.084 126.299 464.682 121.904C462.28 117.51 460.58 112.705 459.584 107.49C458.647 102.217 458.295 97.002 458.53 91.8457L459.409 84.8145C460.346 79.248 461.928 73.6816 464.155 68.1152C466.44 62.5488 469.37 57.4805 472.944 52.9102C476.518 48.2812 480.766 44.6191 485.688 41.9238C490.61 39.2285 496.264 37.9688 502.651 38.1445C509.155 38.3203 514.457 39.873 518.559 42.8027C522.661 45.7324 525.766 49.541 527.875 54.2285C530.043 58.916 531.391 64.043 531.918 69.6094C532.504 75.1758 532.504 80.6543 531.918 86.0449ZM511 87.8027L511.264 85.8691C511.557 82.8809 511.645 79.6289 511.528 76.1133C511.469 72.5977 510.971 69.2871 510.034 66.1816C509.096 63.0176 507.485 60.4102 505.2 58.3594C502.973 56.3086 499.868 55.2246 495.883 55.1074C492.25 54.9316 488.969 55.5176 486.039 56.8652C483.11 58.1543 480.532 59.9707 478.305 62.3145C476.079 64.6582 474.204 67.3242 472.68 70.3125C471.215 73.3008 470.161 76.4062 469.516 79.6289L466.791 96.8555C466.616 100.723 467.143 104.414 468.373 107.93C469.663 111.387 471.655 114.229 474.35 116.455C477.104 118.682 480.59 119.854 484.809 119.971C489.145 120.088 492.866 119.18 495.971 117.246C499.077 115.312 501.655 112.734 503.705 109.512C505.756 106.23 507.368 102.686 508.539 98.877C509.77 95.0098 510.59 91.3184 511 87.8027ZM534.566 89.0332L534.829 87.0117C535.532 80.4492 537.144 74.209 539.663 68.291C542.183 62.373 545.523 57.1289 549.683 52.5586C553.902 47.9297 558.853 44.3262 564.536 41.748C570.279 39.1699 576.665 37.9688 583.697 38.1445C590.493 38.2617 596.323 39.668 601.187 42.3633C606.109 45.0586 610.093 48.6621 613.14 53.1738C616.245 57.627 618.413 62.7246 619.644 68.4668C620.874 74.1504 621.197 80.0977 620.611 86.3086L620.435 88.3301C619.673 94.8926 618.003 101.104 615.425 106.963C612.906 112.822 609.536 118.037 605.318 122.607C601.157 127.119 596.206 130.664 590.464 133.242C584.781 135.762 578.452 136.934 571.48 136.758C564.741 136.641 558.911 135.264 553.99 132.627C549.126 129.932 545.142 126.357 542.036 121.904C538.99 117.451 536.851 112.412 535.62 106.787C534.39 101.104 534.038 95.1855 534.566 89.0332ZM555.396 87.0117L555.22 89.0332C554.927 92.2559 554.898 95.6543 555.132 99.2285C555.366 102.803 556.07 106.143 557.241 109.248C558.413 112.354 560.23 114.902 562.691 116.895C565.152 118.887 568.433 119.941 572.534 120.059C576.87 120.176 580.65 119.297 583.872 117.422C587.095 115.547 589.79 113.027 591.958 109.863C594.126 106.699 595.855 103.242 597.144 99.4922C598.433 95.6836 599.282 91.9629 599.693 88.3301L599.868 86.3086C600.22 83.1445 600.279 79.7754 600.044 76.2012C599.81 72.5684 599.107 69.1699 597.935 66.0059C596.763 62.7832 594.947 60.1758 592.486 58.1836C590.025 56.1328 586.743 55.0488 582.642 54.9316C578.247 54.8145 574.439 55.7227 571.216 57.6562C567.993 59.5312 565.298 62.0801 563.13 65.3027C560.962 68.5254 559.234 72.041 557.945 75.8496C556.714 79.6582 555.865 83.3789 555.396 87.0117ZM652.525 59.0625L639.342 135H618.688L635.211 39.9023H654.811L652.525 59.0625ZM683.463 39.1113L681.178 58.8867C679.83 58.6523 678.453 58.4473 677.047 58.2715C675.699 58.0957 674.352 58.0078 673.004 58.0078C669.43 57.9492 666.207 58.4473 663.336 59.502C660.465 60.5566 657.945 62.0801 655.777 64.0723C653.609 66.0059 651.793 68.3496 650.328 71.1035C648.863 73.7988 647.721 76.8164 646.9 80.1562L641.979 80.5078C642.564 75.8789 643.561 71.0742 644.967 66.0938C646.432 61.1133 648.453 56.4844 651.031 52.207C653.609 47.8711 656.891 44.3848 660.875 41.748C664.859 39.0527 669.693 37.7637 675.377 37.8809C676.725 37.8809 678.072 37.998 679.42 38.2324C680.768 38.4668 682.115 38.7598 683.463 39.1113ZM732.78 39.9023L730.055 55.3711H678.024L680.661 39.9023H732.78ZM699.733 16.6113H720.387L704.655 108.896C704.421 110.947 704.421 112.734 704.655 114.258C704.948 115.781 705.622 116.982 706.677 117.861C707.79 118.682 709.489 119.121 711.774 119.18C713.005 119.238 714.235 119.18 715.466 119.004C716.755 118.828 718.044 118.652 719.333 118.477L717.839 134.824C715.729 135.469 713.561 135.938 711.335 136.23C709.167 136.523 706.969 136.641 704.743 136.582C699.469 136.523 695.221 135.322 691.999 132.979C688.776 130.576 686.52 127.383 685.231 123.398C683.942 119.414 683.532 114.961 684.001 110.039L699.733 16.6113ZM776.824 115.928L784.031 70.3125C784.382 67.2656 784.177 64.5117 783.416 62.0508C782.654 59.5898 781.248 57.6562 779.197 56.25C777.205 54.7852 774.568 54.0234 771.287 53.9648C768.357 53.9062 765.603 54.4043 763.025 55.459C760.447 56.4551 758.25 57.9492 756.433 59.9414C754.675 61.9336 753.504 64.3652 752.918 67.2363L732.263 67.3242C732.615 62.3438 734.08 58.0078 736.658 54.3164C739.295 50.5664 742.605 47.4902 746.589 45.0879C750.632 42.627 754.968 40.8398 759.597 39.7266C764.285 38.5547 768.855 37.998 773.308 38.0566C779.754 38.1738 785.466 39.5508 790.447 42.1875C795.427 44.8242 799.207 48.5449 801.785 53.3496C804.422 58.1543 805.418 63.9551 804.773 70.752L797.83 113.115C797.302 116.455 796.922 119.883 796.687 123.398C796.511 126.855 796.98 130.195 798.093 133.418L797.918 135L777.439 135.088C776.56 131.982 776.121 128.818 776.121 125.596C776.121 122.314 776.355 119.092 776.824 115.928ZM786.404 77.168L784.295 90.2637L770.584 90.1758C767.771 90.1758 764.871 90.4395 761.882 90.9668C758.953 91.4941 756.199 92.4023 753.621 93.6914C751.043 94.9805 748.875 96.7383 747.117 98.9648C745.359 101.133 744.275 103.857 743.865 107.139C743.572 109.775 743.865 112.061 744.744 113.994C745.681 115.869 747.088 117.363 748.963 118.477C750.838 119.59 753.064 120.176 755.642 120.234C759.099 120.293 762.498 119.619 765.838 118.213C769.236 116.807 772.166 114.814 774.627 112.236C777.146 109.6 778.875 106.582 779.812 103.184L785.349 112.676C784.06 116.25 782.244 119.531 779.9 122.52C777.615 125.508 774.949 128.086 771.902 130.254C768.855 132.422 765.515 134.092 761.882 135.264C758.308 136.436 754.617 136.992 750.808 136.934C745.535 136.816 740.73 135.615 736.394 133.33C732.058 130.986 728.63 127.734 726.111 123.574C723.591 119.414 722.478 114.609 722.771 109.16C723.064 103.008 724.617 97.8809 727.429 93.7793C730.3 89.6191 733.963 86.3379 738.416 83.9355C742.927 81.4746 747.849 79.7168 753.181 78.6621C758.513 77.6074 763.787 77.0801 769.002 77.0801L786.404 77.168ZM850.223 0L826.756 135H806.102L829.481 0H850.223Z" fill="white"/>
</svg>
